<svg width="490" height="490" viewBox="0 0 490 490" xmlns="http://www.w3.org/2000/svg" xmlns:xlink="http://www.w3.org/1999/xlink"><title>Group 5</title><defs><path d="M490 245c0 135.31-109.69 245-245 245S0 380.31 0 245 109.69 0 245 0s245 109.69 245 245" id="a"/><radialGradient fx="50%" fy="50%" id="b"><stop stop-color="#FFF" stop-opacity="0" offset="0%"/><stop stop-color="#FFF" stop-opacity="0" offset="20%"/><stop stop-color="#7519C1" offset="100%"/></radialGradient><filter x="-50%" y="-50%" width="200%" height="200%" filterUnits="objectBoundingBox" id="c"><feGaussianBlur in="SourceGraphic"/></filter><filter x="-50%" y="-50%" width="200%" height="200%" filterUnits="objectBoundingBox" id="e"><feGaussianBlur stdDeviation="19.649" in="SourceGraphic"/></filter><filter x="-50%" y="-50%" width="200%" height="200%" filterUnits="objectBoundingBox" id="f"><feGaussianBlur stdDeviation="19.649" in="SourceGraphic"/></filter><path d="M392 196c0 108.247-87.753 196-196 196S0 304.247 0 196 87.753 0 196 0s196 87.753 196 196" id="g"/><filter x="-50%" y="-50%" width="200%" height="200%" filterUnits="objectBoundingBox" id="h"><feGaussianBlur in="SourceGraphic"/></filter><filter x="-50%" y="-50%" width="200%" height="200%" filterUnits="objectBoundingBox" id="j"><feGaussianBlur stdDeviation="19.649" in="SourceGraphic"/></filter><filter x="-50%" y="-50%" width="200%" height="200%" filterUnits="objectBoundingBox" id="k"><feGaussianBlur stdDeviation="19.649" in="SourceGraphic"/></filter><path d="M294 147c0 81.185-65.815 147-147 147S0 228.185 0 147 65.815 0 147 0s147 65.815 147 147" id="l"/><filter x="-50%" y="-50%" width="200%" height="200%" filterUnits="objectBoundingBox" id="m"><feGaussianBlur in="SourceGraphic"/></filter><filter x="-50%" y="-50%" width="200%" height="200%" filterUnits="objectBoundingBox" id="o"><feGaussianBlur stdDeviation="19.649" in="SourceGraphic"/></filter><filter x="-50%" y="-50%" width="200%" height="200%" filterUnits="objectBoundingBox" id="p"><feGaussianBlur stdDeviation="19.649" in="SourceGraphic"/></filter><radialGradient cx="51.707%" fx="51.707%" fy="50%" id="q"><stop stop-color="#BF6CF0" offset="0%"/><stop stop-color="#7216BF" offset="100%"/></radialGradient><linearGradient x1="50%" y1="100%" x2="50%" y2="0%" id="r"><stop stop-color="#CD1572" offset="0%"/><stop stop-color="#FD45C2" offset="100%"/></linearGradient><linearGradient x1="50%" y1="0%" x2="50%" y2="100%" id="s"><stop stop-color="#FFC4ED" offset="0%"/><stop stop-color="#FF5DBF" offset="100%"/></linearGradient></defs><g fill="none" fill-rule="evenodd"><g><mask id="d" fill="#fff"><use xlink:href="#a"/></mask><path d="M490 245c0 135.31-109.69 245-245 245S0 380.31 0 245 109.69 0 245 0s245 109.69 245 245" fill="url(#b)" opacity=".2" filter="url(#c)" mask="url(#d)"/><path d="M490 490c0 135.31-109.69 245-245 245S0 625.31 0 490s109.69-245 245-245 245 109.69 245 245" fill="#000" filter="url(#e)" mask="url(#d)"/><path d="M490 0c0 135.31-109.69 245-245 245S0 135.31 0 0s109.69-245 245-245S490-135.31 490 0" fill="#000" filter="url(#f)" mask="url(#d)"/></g><g transform="translate(49 49)"><mask id="i" fill="#fff"><use xlink:href="#g"/></mask><path d="M392 196c0 108.247-87.753 196-196 196S0 304.247 0 196 87.753 0 196 0s196 87.753 196 196" fill="url(#b)" opacity=".4" filter="url(#h)" mask="url(#i)"/><path d="M392 392c0 108.247-87.753 196-196 196S0 500.247 0 392s87.753-196 196-196 196 87.753 196 196" fill="#000" filter="url(#j)" mask="url(#i)"/><path d="M392 0c0 108.247-87.753 196-196 196S0 108.247 0 0s87.753-196 196-196S392-108.247 392 0" fill="#000" filter="url(#k)" mask="url(#i)"/></g><g transform="translate(98 98)"><mask id="n" fill="#fff"><use xlink:href="#l"/></mask><path d="M294 147c0 81.185-65.815 147-147 147S0 228.185 0 147 65.815 0 147 0s147 65.815 147 147" fill="url(#b)" opacity=".8" filter="url(#m)" mask="url(#n)"/><path d="M294 294c0 81.185-65.815 147-147 147S0 375.185 0 294s65.815-147 147-147 147 65.815 147 147" fill="#000" filter="url(#o)" mask="url(#n)"/><path d="M294 0c0 81.185-65.815 147-147 147S0 81.185 0 0s65.815-147 147-147S294-81.185 294 0" fill="#000" filter="url(#p)" mask="url(#n)"/></g><path d="M209.067 104.533c0 57.732-46.802 104.534-104.534 104.534C46.803 209.067 0 162.265 0 104.533 0 46.803 46.802 0 104.533 0c57.732 0 104.534 46.802 104.534 104.533" fill="url(#q)" transform="translate(140.784 140.784)"/><path d="M156.758 91.963c0-16.51-12.365-29.896-27.622-29.896-10.75 0-20.04 6.66-24.603 16.366v81.634l.007-.022c55.2-34.874 52.218-68.082 52.218-68.082" fill="url(#r)" transform="translate(140.784 140.784)"/><path d="M104.52 78.493c-4.557-9.738-13.862-16.426-24.635-16.426-15.256 0-27.618 13.385-27.618 29.896 0 .095.01.186.013.283-.136 3.252-.036 34.775 52.235 67.8l.004.02.013-.01.015.01V78.434l-.03.06" fill="url(#s)" transform="translate(140.784 140.784)"/></g></svg>