<svg width="32" height="37" viewBox="0 0 32 37" xmlns="http://www.w3.org/2000/svg"><title>Group</title><defs><linearGradient x1="50%" y1="0%" x2="50%" y2="100%" id="a"><stop stop-color="#C3FFF3" offset="0%"/><stop stop-color="#3AF6BB" offset="100%"/></linearGradient><linearGradient x1="50%" y1="0%" x2="50%" y2="100%" id="b"><stop stop-color="#34F7D2" offset="0%"/><stop stop-color="#18EAA5" offset="100%"/></linearGradient></defs><g fill="none" fill-rule="evenodd"><path d="M20.69 1.752L9.464 3.16v22.908c-1.75-.656-4.025-.384-6.026.91C.407 28.94-.838 32.493.66 34.912c1.495 2.42 5.166 2.793 8.197.83 2.195-1.42 3.452-3.672 3.412-5.726v-18.76l8.42-1.055V1.75z" fill="url(#a)"/><path d="M31.914.353V.346L20.69 1.752V10.2l8.418-1.056v14.104c-1.75-.656-4.025-.384-6.026.91-3.03 1.962-4.276 5.514-2.78 7.933 1.497 2.42 5.167 2.793 8.2.83 2.193-1.42 3.45-3.672 3.41-5.726h.002V.354z" fill="url(#b)"/></g></svg>