<?xml version="1.0" encoding="utf-8"?>
<!-- Generator: Adobe Illustrator 19.0.1, SVG Export Plug-In . SVG Version: 6.00 Build 0)  -->
<svg version="1.1" id="Слой_1" xmlns="http://www.w3.org/2000/svg" xmlns:xlink="http://www.w3.org/1999/xlink" x="0px" y="0px"
	 viewBox="0 0 512 512" style="enable-background:new 0 0 512 512;" xml:space="preserve">
<style type="text/css">
	.st0{fill:#C5C8CE;}
</style>
<path class="st0" d="M512,404.9c-1.3,4.6-2.2,9.3-4,13.7c-4.8,11.6-12.3,21.4-20.7,30.5c-13.2,14.4-28.1,26.7-44.9,36.7
	c-23,13.6-47.3,16.5-73.1,9.2c-25.4-7.2-49.4-17.5-72.8-29.5C239.3,436,186.7,400,140.4,355.1c-34.4-33.4-63.9-70.9-89.7-111.4
	c-15.6-24.5-29.8-49.7-40.2-76.8c-3.7-9.8-6.7-19.9-9.1-30.1c-3.2-13.7-0.5-27,4.8-39.8c8.2-19.6,21.2-35.7,37-49.6
	c10.2-9,20.6-17.9,32.5-24.8c7.8-4.5,15.9-8.3,24.8-10.1c6.4-1.3,12.6-0.2,18.5,2.5c14.6,6.5,26.2,16.7,36.2,28.8
	c19.3,23.4,34.7,49.3,47.2,76.9c1.1,2.5,2,5.2,2.7,7.9c1.8,7,0.2,13.4-4.8,18.6c-2.7,2.8-5.7,5.4-9,7.5
	c-13.2,8.8-27.4,15.7-42.3,21.3c-2.6,1-5.1,2.3-7.6,3.4c-16.9,7.1-19.9,28.5-14.6,39.9c8.2,17.4,18.7,33.2,31,47.8
	c37.5,44.9,81.8,81.7,133.2,109.7c13.5,7.3,28.8,5.1,40.6-6.6c3.3-3.3,6.2-7.1,8.4-11.2c7.4-13,14.3-26.3,21.6-39.3
	c2-3.6,4.7-6.9,7.4-10.1c7.2-8.6,20-10.9,30.5-6c12,5.6,23,13,34,20.3c23,15.2,44.9,31.8,64.6,51.1c2.7,2.7,5.1,5.7,7.6,8.6
	c3.1,3.7,5.1,8,6.1,12.8C512,399.3,512,402.1,512,404.9z"/>
</svg>
