<?xml version="1.0" encoding="utf-8"?>
<!-- Generator: Adobe Illustrator 19.0.1, SVG Export Plug-In . SVG Version: 6.00 Build 0)  -->
<svg version="1.1" id="Слой_1" xmlns="http://www.w3.org/2000/svg" xmlns:xlink="http://www.w3.org/1999/xlink" x="0px" y="0px"
	 viewBox="-41 164.9 512 512" style="enable-background:new -41 164.9 512 512;" xml:space="preserve">
<style type="text/css">
	.st0{fill:#C5C8CE;}
</style>
<g>
	<path class="st0" d="M175.7,365.8c0-15.7-2.8-38.7-8.3-69.1c-5.5-30.4-8.3-53.4-8.3-69.1c0-38.7,17.5-58.1,52.5-58.1
		c15.7,0,28.3,5.8,38,17.3c9.7,11.5,14.5,25.1,14.5,40.8c0,15.7-2.8,38.7-8.3,69.1c-5.5,30.4-8.3,53.5-8.3,69.1
		c4.6-2.8,26.7-20.7,66.4-53.9c27.7-23,51.6-34.6,71.9-34.6c33.2,0,49.8,15.7,49.8,47c0,24-21.7,44.7-65,62.2
		c-31.3,12-63.1,23.5-95.4,34.6c32.3,10.2,65,20.7,98.2,31.8c41.5,14.8,62.2,36.9,62.2,66.4c0,32.3-16.6,48.4-49.8,48.4
		c-12.9,0-28.6-7.4-47-22.1l-91.2-71.9c0,15.7,2.8,39.2,8.3,70.5c5.5,31.3,8.3,54.9,8.3,70.5c0,38.7-18.4,58.1-55.3,58.1
		c-33.2,0-49.8-19.4-49.8-58.1c0-15.7,2.8-39.2,8.3-70.5c5.5-31.3,8.3-54.8,8.3-70.5c-3.7,1.9-26.7,20.3-69.1,55.3
		c-32.3,25.8-56.2,38.7-71.9,38.7c-12,0-22.6-5.5-31.8-16.6c-9.2-11.1-13.8-23-13.8-35.9c0-24,21.2-44.2,63.6-60.8
		c32.3-11.1,64.1-22.1,95.4-33.2C116.7,410.1,85.3,399,54,388c-43.3-18.4-65-38.7-65-60.8c0-33.2,16.1-49.8,48.4-49.8
		c18.4,0,42.4,12,71.9,35.9C148.9,345.6,171,363.1,175.7,365.8z"/>
</g>
</svg>
